{"title":"All hail king Julien S01E01 PL.PAL.Xvid.avi","uid":13236595,"size":454505752,"categoryP":"video","categoryS":"tv_shows","magnet":"?xt=urn:btih:9e9873e4bca81126c2dac2e6ea2040a188d98242&amp;dn=All+hail+king+Julien+S01E01+PL.PAL.Xvid.avi&amp;tr=udp%3A%2F%2Ftracker.leechers-paradise.org%3A6969&amp;tr=udp%3A%2F%2Fzer0day.ch%3A1337&amp;tr=udp%3A%2F%2Fopen.demonii.com%3A1337&amp;tr=udp%3A%2F%2Ftracker.coppersurfer.tk%3A6969&amp;tr=udp%3A%2F%2Fexodus.desync.com%3A6969","seeders":0,"leechers":0,"uploader":"Jan100000","files":1,"time":1453015906,"description":"Video\r\nID                          : 0\r\nFormat                      : MPEG-4 Visual\r\nFormat profile              : Advanced   \r\nFormat settings, BVOP       : 2\r\nFormat settings, QPel       : Yes\r\nFormat settings, GMC        : No warppoints\r\nFormat settings, Matrix     : Default (H.263)\r\nMuxing mode                 : Packed bitstream\r\nCodec ID                    : XVID\r\nCodec ID/Hint               : XviD\r\nDuration                    : 23mn 15s\r\nBit rate                    : 2 273 Kbps\r\nWidth                       : 720 pixels\r\nHeight                      : 540 pixels\r\nDisplay aspect ratio        : 4:3\r\nFrame rate                  : 23.976 fps\r\nColor space                 : YUV\r\nChroma subsampling          : 4:2:0\r\nBit depth                   : 8 bits\r\nScan type                   : Progressive\r\nCompression mode            : Lossy\r\nBits/(Pixel*Frame)          : 0.244\r\nStream size                 : 378 MiB (87%)\r\nWriting library             : XviD 73\r\n\r\nAudio\r\nID                          : 1\r\nFormat                      : MPEG Audio\r\nFormat version              : Version 1\r\nFormat profile              : Layer 3\r\nMode                        : Joint stereo\r\nCodec ID                    : 55\r\nCodec ID/Hint               : MP3\r\nDuration                    : 23mn 15s\r\nBit rate mode               : Constant\r\nBit rate                    : 320 Kbps\r\nChannel(s)                  : 2 channels\r\nSampling rate               : 48.0 KHz\r\nCompression mode            : Lossy\r\nStream size                 : 53.2 MiB (12%)\r\nAlignment                   : Aligned on interleaves\r\nInterleave, duration        : 24 ms (0.58 video frame)\r\nInterleave, preload duratio : 504 ms","torrent":{"xt":"urn:btih:9e9873e4bca81126c2dac2e6ea2040a188d98242","amp;dn":"All+hail+king+Julien+S01E01+PL.PAL.Xvid.avi","amp;tr":["udp%3A%2F%2Ftracker.leechers-paradise.org%3A6969","udp%3A%2F%2Fzer0day.ch%3A1337","udp%3A%2F%2Fopen.demonii.com%3A1337","udp%3A%2F%2Ftracker.coppersurfer.tk%3A6969","udp%3A%2F%2Fexodus.desync.com%3A6969"],"infoHash":"9e9873e4bca81126c2dac2e6ea2040a188d98242","infoHashBuffer":{"type":"Buffer","data":[158,152,115,228,188,168,17,38,194,218,194,230,234,32,64,161,136,217,130,66]},"announce":[],"urlList":[]}}